<?xml version="1.0" encoding="utf-8"?>
<!-- Generator: Adobe Illustrator 24.0.0, SVG Export Plug-In . SVG Version: 6.00 Build 0)  -->
<svg version="1.1" id="Layer_1" xmlns="http://www.w3.org/2000/svg" xmlns:xlink="http://www.w3.org/1999/xlink" x="0px" y="0px"
	 viewBox="0 0 2000 1000" style="enable-background:new 0 0 2000 1000;" xml:space="preserve">
<style type="text/css">
	.st0{clip-path:url(#SVGID_2_);fill:url(#SVGID_3_);}
	.st1{fill:#FFFFFF;}
	.st2{clip-path:url(#SVGID_5_);}
	.st3{clip-path:url(#SVGID_7_);fill:none;stroke:#000000;stroke-width:0.2;}
	.st4{clip-path:url(#SVGID_9_);}
	.st5{clip-path:url(#SVGID_13_);}
	.st6{clip-path:url(#SVGID_17_);fill:url(#SVGID_18_);}
	.st7{clip-path:url(#SVGID_20_);}
	.st8{clip-path:url(#SVGID_22_);fill:none;stroke:#000000;stroke-width:0.2;}
	.st9{clip-path:url(#SVGID_24_);}
	.st10{clip-path:url(#SVGID_28_);}
	.st11{clip-path:url(#SVGID_32_);}
	.st12{clip-path:url(#SVGID_34_);fill:none;stroke:#000000;stroke-width:0.2;}
	.st13{clip-path:url(#SVGID_36_);}
</style>
<g>
	<g>
		<g>
			<path d="M71.09,956.27V956c0.91-0.07,0.96-0.15,0.96-0.87v-3.85c0-0.52-0.04-0.57-0.48-0.59l-0.48-0.02v-0.23
				c0.64-0.11,1.23-0.3,1.78-0.52v5.21c0,0.72,0.06,0.8,0.97,0.87v0.27H71.09z"/>
		</g>
		<g>
			<path d="M82.95,952.83c0-0.08-0.03-0.15-0.08-0.21c-0.06-0.06-0.12-0.09-0.2-0.09h-0.95v3c0,0.09,0.04,0.16,0.1,0.22
				c0.06,0.06,0.14,0.09,0.22,0.09h0.06v0.05H81v-0.05h0.07c0.09,0,0.16-0.03,0.22-0.09c0.06-0.06,0.09-0.13,0.1-0.22v-3h-0.95
				c-0.08,0-0.15,0.04-0.2,0.09c-0.05,0.06-0.08,0.13-0.08,0.21v0.08l-0.05,0v-0.63c0.05,0.02,0.14,0.04,0.26,0.06
				c0.12,0.02,0.24,0.03,0.34,0.03h1.69c0.16,0,0.3-0.01,0.41-0.04c0.11-0.02,0.17-0.04,0.2-0.05v0.63l-0.05,0V952.83z"/>
			<path d="M86.36,952.43h-0.07c-0.1,0-0.19,0.03-0.28,0.08c-0.09,0.05-0.16,0.12-0.22,0.21l-0.99,1.6v1.19
				c0,0.09,0.03,0.16,0.09,0.22s0.14,0.09,0.23,0.09h0.06v0.05h-1.09v-0.05h0.07c0.09,0,0.16-0.03,0.22-0.09
				c0.06-0.06,0.09-0.13,0.1-0.22v-1.21l-0.96-1.59c-0.05-0.08-0.12-0.15-0.21-0.21s-0.19-0.08-0.29-0.08h-0.07v-0.05h1.23v0.05
				h-0.06c-0.07,0-0.13,0.03-0.17,0.1c-0.02,0.04-0.03,0.07-0.03,0.11s0.01,0.07,0.03,0.1l0.75,1.4l0.8-1.4
				c0.02-0.03,0.02-0.07,0.02-0.1s-0.01-0.07-0.03-0.1c-0.04-0.07-0.1-0.1-0.17-0.1h-0.06v-0.05h1.11V952.43z"/>
			<path d="M88.68,953.34c0,0.15-0.03,0.28-0.09,0.41c-0.11,0.24-0.3,0.4-0.58,0.5c-0.1,0.03-0.18,0.05-0.25,0.05
				c-0.21,0-0.38-0.04-0.54-0.12v-0.05c0.24,0.05,0.47,0.03,0.68-0.08c0.18-0.09,0.31-0.25,0.38-0.46c0.02-0.07,0.03-0.13,0.03-0.19
				c0-0.06,0-0.1,0-0.11c-0.01-0.23-0.07-0.42-0.18-0.56c-0.12-0.14-0.28-0.21-0.49-0.21h-0.58v2.98c0,0.09,0.04,0.16,0.1,0.22
				s0.14,0.09,0.22,0.09h0.06v0.05h-1.09v-0.05h0.07c0.09,0,0.16-0.03,0.22-0.09c0.06-0.06,0.09-0.14,0.1-0.22v-2.79
				c-0.01-0.08-0.04-0.15-0.1-0.21c-0.06-0.06-0.13-0.08-0.21-0.08h-0.06l0-0.05h1.31c0.32,0,0.57,0.09,0.75,0.26
				C88.59,952.81,88.68,953.04,88.68,953.34z"/>
			<path d="M89.03,955.83c0.09,0,0.16-0.03,0.22-0.09c0.06-0.06,0.09-0.14,0.1-0.22v-2.8c0-0.08-0.03-0.15-0.09-0.2
				c-0.06-0.06-0.14-0.08-0.22-0.08h-0.06l0-0.05h1.46c0.1,0,0.22-0.01,0.34-0.03c0.12-0.02,0.21-0.04,0.26-0.06v0.63h-0.05v-0.09
				c0-0.08-0.03-0.15-0.08-0.21s-0.12-0.09-0.2-0.09h-1.02v1.54h0.85c0.07,0,0.12-0.03,0.17-0.08c0.05-0.05,0.07-0.11,0.07-0.17
				v-0.07h0.05v0.79h-0.05v-0.08c0-0.07-0.02-0.12-0.07-0.17s-0.1-0.07-0.17-0.08h-0.85v1.5h0.71c0.25,0,0.44-0.05,0.57-0.17
				c0.13-0.11,0.24-0.27,0.33-0.49h0.05l-0.29,0.81h-2.08v-0.05H89.03z"/>
			<path d="M91.6,955.67c-0.01-0.05-0.01-0.14-0.01-0.27c0-0.13,0.03-0.28,0.08-0.43h0.04c0,0.04,0,0.07,0,0.11
				c0,0.2,0.06,0.37,0.18,0.51c0.12,0.13,0.29,0.2,0.49,0.2c0.21,0,0.38-0.06,0.52-0.19c0.13-0.13,0.2-0.29,0.2-0.48
				c0-0.19-0.06-0.35-0.19-0.47l-0.96-0.89c-0.18-0.17-0.27-0.37-0.27-0.6s0.08-0.44,0.24-0.61s0.37-0.25,0.64-0.25
				c0.13,0,0.27,0.02,0.43,0.05h0.2v0.61h-0.04c0-0.16-0.05-0.28-0.16-0.38c-0.11-0.09-0.25-0.14-0.42-0.14s-0.31,0.06-0.43,0.17
				c-0.11,0.11-0.17,0.25-0.17,0.42s0.07,0.32,0.2,0.44l0.98,0.91c0.17,0.15,0.25,0.36,0.25,0.63s-0.08,0.49-0.25,0.66
				s-0.4,0.26-0.68,0.26c-0.15,0-0.3-0.02-0.47-0.07C91.82,955.84,91.69,955.77,91.6,955.67z"/>
			<path d="M95.16,952.81c0.36-0.33,0.82-0.5,1.39-0.5s1.03,0.17,1.39,0.5s0.54,0.77,0.54,1.32s-0.18,0.98-0.54,1.32
				s-0.82,0.5-1.39,0.5s-1.03-0.17-1.39-0.5c-0.36-0.33-0.54-0.77-0.54-1.32S94.8,953.15,95.16,952.81z M95.43,955.34
				c0.28,0.31,0.65,0.46,1.11,0.46s0.83-0.15,1.11-0.46s0.42-0.71,0.42-1.21s-0.14-0.9-0.42-1.21s-0.65-0.46-1.11-0.46
				s-0.83,0.15-1.11,0.46c-0.28,0.31-0.42,0.71-0.42,1.21S95.15,955.03,95.43,955.34z"/>
			<path d="M100.68,952.43v0.42h-0.05v-0.07c0-0.07-0.02-0.13-0.07-0.17s-0.11-0.07-0.17-0.07h-1.06v1.54h0.85
				c0.07,0,0.12-0.03,0.17-0.08c0.05-0.05,0.07-0.1,0.07-0.17v-0.08h0.05v0.79h-0.05v-0.08c0-0.07-0.02-0.12-0.07-0.17
				s-0.1-0.07-0.17-0.08h-0.85v1.29c0,0.09,0.03,0.16,0.1,0.22c0.06,0.06,0.14,0.09,0.22,0.09h0.06v0.05h-1.09v-0.05h0.07
				c0.09,0,0.16-0.03,0.22-0.09c0.06-0.06,0.09-0.14,0.1-0.22v-2.8c0-0.08-0.03-0.15-0.1-0.2c-0.07-0.06-0.14-0.08-0.22-0.08h-0.06
				l0-0.05h1.46c0.1,0,0.22-0.01,0.34-0.03c0.12-0.02,0.21-0.04,0.26-0.06V952.43z"/>
			<path d="M102.57,955.45c-0.33-0.33-0.5-0.77-0.5-1.32c0-0.54,0.17-0.98,0.5-1.32c0.33-0.33,0.77-0.5,1.32-0.5
				c0.45,0,0.84,0.11,1.18,0.34l0.1,0.71h-0.04c-0.07-0.29-0.22-0.51-0.45-0.66c-0.22-0.16-0.49-0.23-0.79-0.23
				c-0.44,0-0.79,0.15-1.05,0.46c-0.26,0.3-0.39,0.71-0.39,1.21s0.13,0.9,0.39,1.21c0.26,0.31,0.6,0.46,1.02,0.47
				c0.37,0,0.68-0.1,0.93-0.3c0.27-0.22,0.43-0.58,0.49-1.08h0.04l-0.06,0.79c-0.3,0.5-0.77,0.75-1.41,0.75
				C103.33,955.95,102.9,955.78,102.57,955.45z"/>
			<path d="M108.91,955.83h0.04v0.05h-1.13v-0.05h0.04c0.07,0,0.12-0.02,0.16-0.07s0.05-0.09,0.05-0.13s-0.01-0.08-0.02-0.12
				l-0.32-0.85h-1.35l-0.33,0.85c-0.01,0.04-0.02,0.08-0.02,0.12c0,0.04,0.02,0.08,0.05,0.13s0.09,0.07,0.16,0.07h0.04v0.05h-1
				v-0.05h0.04c0.08,0,0.17-0.03,0.25-0.08s0.14-0.13,0.2-0.24l1.13-2.69c0.12-0.27,0.18-0.44,0.18-0.52h0.04l1.34,3.21
				c0.05,0.1,0.11,0.18,0.19,0.24S108.82,955.83,108.91,955.83z M106.45,954.51h1.23l-0.6-1.6L106.45,954.51z"/>
			<path d="M111.24,952.83c0-0.08-0.03-0.15-0.08-0.21c-0.06-0.06-0.12-0.09-0.2-0.09H110v3c0,0.09,0.04,0.16,0.1,0.22
				c0.06,0.06,0.14,0.09,0.22,0.09h0.06v0.05h-1.09v-0.05h0.07c0.09,0,0.16-0.03,0.22-0.09c0.06-0.06,0.09-0.13,0.1-0.22v-3h-0.95
				c-0.08,0-0.15,0.04-0.2,0.09c-0.05,0.06-0.08,0.13-0.08,0.21v0.08l-0.05,0v-0.63c0.05,0.02,0.14,0.04,0.26,0.06
				c0.12,0.02,0.24,0.03,0.34,0.03h1.69c0.16,0,0.3-0.01,0.41-0.04c0.11-0.02,0.17-0.04,0.2-0.05v0.63l-0.05,0V952.83z"/>
			<path d="M111.43,955.67c-0.01-0.05-0.01-0.14-0.01-0.27c0-0.13,0.03-0.28,0.08-0.43h0.04c0,0.04,0,0.07,0,0.11
				c0,0.2,0.06,0.37,0.18,0.51c0.12,0.13,0.29,0.2,0.49,0.2c0.21,0,0.38-0.06,0.52-0.19c0.13-0.13,0.2-0.29,0.2-0.48
				c0-0.19-0.06-0.35-0.19-0.47l-0.96-0.89c-0.18-0.17-0.27-0.37-0.27-0.6s0.08-0.44,0.24-0.61s0.37-0.25,0.64-0.25
				c0.13,0,0.27,0.02,0.43,0.05h0.2v0.61h-0.04c0-0.16-0.05-0.28-0.16-0.38c-0.11-0.09-0.25-0.14-0.42-0.14s-0.31,0.06-0.43,0.17
				c-0.11,0.11-0.17,0.25-0.17,0.42s0.07,0.32,0.2,0.44l0.98,0.91c0.17,0.15,0.25,0.36,0.25,0.63s-0.08,0.49-0.25,0.66
				s-0.4,0.26-0.68,0.26c-0.15,0-0.3-0.02-0.47-0.07C111.65,955.84,111.52,955.77,111.43,955.67z"/>
		</g>
		<g>
			<defs>
				<path id="SVGID_1_" d="M1433.73,568.4v-3.82v-3.82v-21.94v-1.01v-7.66c3.13,2.83,6.48,5.41,10.01,7.74
					c0.53,0.35,1.07,0.69,1.62,1.03c4.68,2.92,9.66,5.4,14.91,7.34v14.52v1.75v4.14v1.76c-1.68,5.69-6.99,9.87-13.27,9.87
					C1440.71,578.27,1435.4,574.1,1433.73,568.4 M1487,524.97v-7.86v-45.86h0.02c-0.01-0.33-0.02-0.66-0.02-0.99
					c0-0.01,0-0.01,0-0.02c0.01-15.65,12.85-28.38,28.64-28.38c15.3,0,27.83,11.96,28.6,26.94c0.01,0.49,0.04,0.97,0.04,1.46
					c0,0.14-0.01,0.27-0.01,0.4c0,0.34-0.02,0.68-0.03,1.01c0,0.01,0,0.03,0,0.04c-0.66,25.01-18.32,45.89-41.93,51.7
					c-4.27,1.05-8.72,1.61-13.31,1.61C1488.33,525.02,1487.66,524.99,1487,524.97 M1450.65,430.87c2.92-2.79,6.14-5.28,9.62-7.39
					c7.84-4.75,16.97-7.6,26.73-7.95c0.67-0.02,1.33-0.05,2-0.05c4.59,0,9.04,0.57,13.31,1.61c-5.47,1.34-10.62,3.48-15.31,6.3
					c-6.42,3.85-11.98,8.97-16.34,14.98c-6.48,8.93-10.33,19.85-10.38,31.66h-0.01h-0.01c0,0.07,0.01,0.14,0.01,0.22
					c0,0.27-0.03,0.53-0.04,0.8h0.04v36.51v9.46c-3.48-2.11-6.7-4.6-9.62-7.39c-10.28-9.84-16.74-23.57-16.91-38.78h0.02
					c-0.01-0.2-0.03-0.4-0.03-0.6c0-0.14,0.02-0.28,0.02-0.41h-0.01C1433.85,454.55,1440.32,440.74,1450.65,430.87 M1487,389.16
					c-9.38,0.22-18.38,2-26.73,5.1c-5.46,2.03-10.64,4.63-15.48,7.7c-0.53,0.34-1.06,0.66-1.58,1c-3.35,2.24-6.52,4.72-9.49,7.41
					c-16.41,14.85-26.73,36.19-26.73,59.88v94.33c0,15.97,9.64,29.74,23.48,35.99c5.06,2.29,10.69,3.57,16.61,3.57
					c5.88,0,11.45-1.26,16.48-3.51c5.15-2.3,9.73-5.65,13.45-9.77c0.3-0.33,0.6-0.67,0.89-1.01c5.04-5.97,8.32-13.41,9.09-21.57
					c0.12-1.22,0.18-2.45,0.18-3.7c0-1.25-0.07-2.48-0.18-3.7v-9.53c0.67,0.02,1.33,0.05,2,0.05c15.61,0,30.21-4.34,42.64-11.86
					c0.53-0.32,1.05-0.67,1.58-1c9.48-6.03,17.63-13.92,23.91-23.17c0.35-0.52,0.69-1.06,1.03-1.59
					c7.64-11.85,12.26-25.77,12.78-40.71c0.03-0.94,0.07-1.87,0.07-2.81c0-0.94-0.04-1.88-0.07-2.82
					c-0.52-14.94-5.13-28.86-12.78-40.71c-0.34-0.53-0.68-1.06-1.03-1.58c-5.71-8.41-12.97-15.7-21.36-21.49
					c-0.5-0.35-1-0.69-1.51-1.03c-12.98-8.53-28.53-13.52-45.25-13.52C1488.33,389.11,1487.67,389.15,1487,389.16"/>
			</defs>
			<clipPath id="SVGID_2_">
				<use xlink:href="#SVGID_1_"  style="overflow:visible;"/>
			</clipPath>
			
				<linearGradient id="SVGID_3_" gradientUnits="userSpaceOnUse" x1="6023.0488" y1="1000" x2="6024.0488" y2="1000" gradientTransform="matrix(164 0 0 -164 -986373 164496.625)">
				<stop  offset="0" style="stop-color:#A3D2B6"/>
				<stop  offset="1" style="stop-color:#0975BB"/>
			</linearGradient>
			<rect x="1407" y="389.11" class="st0" width="164" height="215.02"/>
		</g>
		<rect x="44" y="940" class="st1" width="94" height="30"/>
	</g>
</g>
</svg>
