<?xml version="1.0" encoding="UTF-8"?>
<svg id="_레이어_1" data-name="레이어 1" xmlns="http://www.w3.org/2000/svg" xmlns:xlink="http://www.w3.org/1999/xlink" viewBox="0 0 2000 1000">
  <defs>
    <style>
      .cls-1 {
        fill: none;
      }

      .cls-2 {
        clip-path: url(#clippath);
      }

      .cls-3 {
        fill: #fff;
      }

      .cls-4 {
        clip-path: url(#clippath-1);
      }

      .cls-5 {
        clip-path: url(#clippath-2);
      }

      .cls-6 {
        fill: url(#_무제_그라디언트_2);
      }
    </style>
    <clipPath id="clippath">
      <rect class="cls-1" width="2000" height="1000"/>
    </clipPath>
    <clipPath id="clippath-1">
      <rect class="cls-1" x="1000" width="1000" height="1000"/>
    </clipPath>
    <linearGradient id="_무제_그라디언트_2" data-name="무제 그라디언트 2" x1="6057.15" y1="1002.85" x2="6058.15" y2="1002.85" gradientTransform="translate(-9094158.9 1506302.67) scale(1501.52 -1501.52)" gradientUnits="userSpaceOnUse">
      <stop offset="0" stop-color="#e63683"/>
      <stop offset=".18" stop-color="#e63a7d"/>
      <stop offset=".41" stop-color="#e7486e"/>
      <stop offset=".64" stop-color="#ea5d58"/>
      <stop offset=".8" stop-color="#eb6254"/>
      <stop offset="1" stop-color="#ed8831"/>
    </linearGradient>
    <clipPath id="clippath-2">
      <rect class="cls-1" x="1000" width="1000" height="1000"/>
    </clipPath>
  </defs>
  <g class="cls-2">
    <g class="cls-4">
      <rect class="cls-6" x="792.89" y="-207.11" width="1414.21" height="1414.21" transform="translate(85.79 1207.11) rotate(-45)"/>
    </g>
    <g class="cls-5">
      <path class="cls-3" d="m1647.13,453.49c0-.48-.02-.96-.02-1.44,0-.29,0-.58-.01-.87,0-.45-.01-.9-.02-1.34-.02-.57-.05-1.14-.07-1.71-.03-.68-.05-1.37-.09-2.05-.03-.55-.07-1.09-.11-1.64-.05-.7-.09-1.4-.14-2.1-.04-.52-.1-1.04-.14-1.57-.07-.71-.12-1.43-.2-2.14-.05-.5-.12-1-.17-1.51-.08-.73-.16-1.45-.26-2.17-.06-.48-.14-.96-.2-1.44-.1-.74-.2-1.48-.32-2.22-.07-.45-.15-.9-.23-1.35-.13-.76-.25-1.52-.39-2.27-.08-.43-.17-.86-.25-1.29-.15-.77-.29-1.54-.45-2.3-.08-.41-.18-.81-.27-1.22-.17-.78-.34-1.57-.52-2.35-.09-.39-.19-.77-.29-1.16-.19-.79-.38-1.59-.59-2.37-.09-.37-.2-.73-.3-1.09-.22-.8-.43-1.61-.66-2.41-.1-.34-.21-.68-.31-1.03-.24-.81-.48-1.63-.73-2.44-.1-.32-.21-.64-.31-.96-.27-.82-.53-1.65-.81-2.47-.1-.3-.21-.6-.32-.9-.29-.83-.58-1.67-.89-2.49-.1-.27-.21-.54-.31-.81-.32-.85-.64-1.69-.97-2.53-.1-.26-.22-.52-.32-.79-.34-.84-.69-1.69-1.04-2.52-.1-.24-.21-.47-.31-.7-.37-.86-.75-1.72-1.13-2.57-.1-.22-.2-.43-.3-.65-.4-.86-.8-1.72-1.21-2.58-.1-.21-.21-.41-.31-.62-.42-.86-.85-1.72-1.29-2.57-.1-.19-.2-.38-.31-.58-.45-.86-.9-1.71-1.36-2.56-.1-.17-.2-.35-.29-.52-.48-.86-.96-1.72-1.45-2.57-.09-.16-.19-.32-.29-.48-.5-.86-1.01-1.72-1.53-2.56-.09-.15-.19-.29-.28-.44-.53-.86-1.06-1.71-1.61-2.56-.09-.14-.19-.28-.28-.42-.55-.85-1.11-1.69-1.68-2.53-.09-.14-.19-.27-.28-.4-.57-.84-1.15-1.67-1.74-2.5-.08-.12-.17-.24-.26-.36-.6-.84-1.21-1.67-1.83-2.49-.08-.11-.17-.22-.25-.33-.63-.83-1.26-1.65-1.9-2.47-.09-.11-.18-.22-.27-.33-.64-.81-1.29-1.61-1.95-2.41-.08-.1-.17-.2-.26-.3-.67-.8-1.34-1.6-2.03-2.39-.08-.09-.16-.17-.23-.26-.7-.8-1.4-1.59-2.11-2.37-.08-.09-.17-.18-.25-.27-.71-.78-1.43-1.55-2.16-2.31-.07-.08-.15-.15-.23-.23-.74-.77-1.48-1.53-2.24-2.29-.08-.08-.17-.16-.26-.25-.75-.74-1.5-1.48-2.27-2.21-.1-.09-.2-.18-.3-.28-.76-.72-1.52-1.42-2.29-2.12-.09-.08-.17-.15-.26-.23-.79-.71-1.58-1.41-2.38-2.11-.09-.08-.19-.15-.28-.23-.8-.69-1.6-1.37-2.42-2.04-.09-.07-.19-.15-.28-.22-.82-.67-1.64-1.33-2.47-1.98-.09-.07-.18-.13-.26-.2-.84-.66-1.69-1.3-2.54-1.94-.1-.08-.21-.15-.31-.22-.84-.63-1.69-1.24-2.55-1.85-.12-.08-.24-.16-.36-.25-.84-.6-1.69-1.18-2.55-1.76-.14-.09-.28-.19-.43-.28-.84-.56-1.68-1.12-2.53-1.66-.14-.09-.28-.17-.42-.26-.86-.54-1.72-1.08-2.58-1.61-.14-.09-.29-.17-.44-.26-.87-.52-1.74-1.04-2.62-1.54-.15-.09-.31-.17-.47-.26-.87-.5-1.75-.99-2.63-1.47-.18-.1-.36-.19-.54-.29-.86-.46-1.73-.92-2.6-1.37-.19-.1-.38-.19-.57-.28-.87-.44-1.74-.88-2.61-1.3-.22-.1-.44-.2-.66-.31-.85-.41-1.71-.81-2.58-1.2-.2-.09-.4-.18-.61-.27-.88-.4-1.77-.79-2.67-1.16-.23-.1-.46-.18-.68-.28-.87-.36-1.75-.73-2.63-1.07-.25-.1-.49-.19-.74-.28-.87-.34-1.73-.67-2.61-.99-.28-.1-.57-.2-.86-.3-.84-.3-1.68-.6-2.53-.89-.3-.1-.61-.2-.91-.3-.84-.28-1.67-.55-2.52-.82-.35-.11-.71-.21-1.07-.32-.8-.24-1.59-.48-2.4-.71-.39-.11-.78-.21-1.17-.32-.77-.21-1.54-.43-2.32-.63-.44-.11-.88-.21-1.32-.32-.74-.18-1.47-.37-2.21-.54-.44-.1-.89-.19-1.34-.29-.74-.16-1.48-.33-2.23-.49-.44-.09-.88-.17-1.32-.25-.76-.15-1.52-.3-2.28-.44-.47-.08-.94-.16-1.41-.23-.74-.12-1.47-.25-2.21-.37-.48-.07-.96-.13-1.44-.2-.74-.11-1.47-.22-2.21-.31-.52-.07-1.04-.12-1.55-.18-.71-.08-1.42-.17-2.13-.24-.63-.06-1.27-.11-1.9-.17-.6-.05-1.2-.11-1.81-.16-.87-.07-1.75-.11-2.62-.17-.37-.02-.74-.05-1.11-.07-.97-.05-1.94-.08-2.92-.11-.28,0-.56-.03-.85-.03-1.26-.03-2.52-.05-3.78-.05-11.55,0-23.08,1.35-34.27,4.02,0,0-.02,0-.02,0-31.58,7.54-60.2,25.7-80.59,51.14-.65.81-1.29,1.62-1.91,2.44-.25.32-.49.65-.73.97-.38.5-.76,1-1.13,1.5-.32.44-.64.89-.96,1.33-.28.39-.57.78-.85,1.18-.38.55-.76,1.1-1.13,1.65-.2.3-.41.6-.61.9-.4.59-.78,1.19-1.17,1.79-.17.27-.35.53-.52.79-.42.66-.83,1.32-1.24,1.99-.13.21-.26.42-.39.63-.45.74-.9,1.49-1.34,2.24-.08.14-.16.27-.24.4-.46.8-.92,1.6-1.36,2.4-.05.09-.1.18-.16.27-10.94,19.74-17.28,41.91-18.34,64.58,0,.03,0,.05,0,.08-.04.86-.07,1.72-.09,2.59,0,.18-.01.37-.02.55-.02.68-.02,1.36-.03,2.04,0,.34-.01.68-.02,1.02,0,.14,0,.27,0,.39v168.1c0,11.55,2.89,23.04,8.36,33.23,12.5,23.27,36.82,37.73,63.47,37.73s50.28-14.07,62.93-36.72c0,0,0,0,0,0,5.82-10.43,8.9-22.27,8.9-34.23v-21.01c1.16.03,2.31.05,3.47.05,81.13,0,147.14-65.95,147.14-147.02v-.11c0-.15,0-.29,0-.44m-223.01-60.03c13.48-16.82,32.38-28.81,53.2-33.78,0,0,0,0,0,0,7.39-1.76,15.02-2.66,22.67-2.66,1.34,0,2.66.03,3.99.09.2,0,.39.01.59.02,1.26.06,2.5.14,3.75.25.24.02.48.04.71.06,1.24.11,2.47.25,3.7.41.19.03.38.05.58.08,1.28.18,2.56.37,3.83.6,0,0,0,0,0,0,0,0-.01,0-.02,0-1.14.35-2.27.73-3.39,1.12-.23.08-.46.16-.68.24-1.09.39-2.17.8-3.24,1.22-.18.07-.36.15-.54.22-1.01.41-2.02.83-3.01,1.28-.13.06-.26.11-.39.17-1.06.48-2.11.97-3.15,1.48-.21.11-.43.21-.64.32-1.04.52-2.08,1.06-3.1,1.61-.1.05-.19.11-.28.16-.97.53-1.93,1.08-2.88,1.65-.17.1-.34.2-.5.3-.99.59-1.96,1.2-2.92,1.83-.18.12-.37.24-.55.36-1.98,1.3-3.9,2.66-5.77,4.09-.17.13-.35.26-.52.4-.91.7-1.81,1.42-2.69,2.16-.14.11-.27.23-.4.34-.85.71-1.68,1.43-2.5,2.16-.09.08-.17.15-.26.23-.86.78-1.71,1.57-2.54,2.38-.16.15-.32.31-.48.46-.83.81-1.65,1.64-2.45,2.48-.07.07-.14.14-.2.22-.76.81-1.51,1.63-2.25,2.46-.12.14-.24.27-.36.41-.76.86-1.5,1.74-2.23,2.63-.13.16-.26.33-.4.49-1.48,1.83-2.9,3.72-4.25,5.66-.12.18-.25.35-.37.53-.65.95-1.29,1.91-1.91,2.88-.1.15-.19.3-.29.46-.59.93-1.16,1.87-1.72,2.83-.06.1-.12.21-.18.31-.58,1-1.15,2.02-1.7,3.05-.11.2-.22.41-.32.61-.54,1.03-1.07,2.07-1.58,3.12-.05.1-.1.21-.15.31-.48,1-.93,2-1.38,3.02-.08.18-.16.35-.23.53-.46,1.06-.9,2.13-1.32,3.21-.08.21-.16.42-.24.64-.85,2.22-1.62,4.49-2.31,6.78-.07.23-.14.45-.2.68-.33,1.12-.64,2.24-.92,3.37-.05.2-.1.39-.15.59-.27,1.07-.52,2.15-.75,3.24-.03.14-.06.27-.09.4-.24,1.16-.46,2.33-.66,3.5-.04.25-.08.5-.13.75-.19,1.18-.37,2.36-.52,3.55-.02.14-.03.28-.05.42-.14,1.11-.25,2.24-.35,3.36-.02.21-.04.43-.06.64-.1,1.19-.17,2.39-.22,3.59-.01.25-.02.5-.03.75-.04,1.11-.07,2.23-.07,3.35l-.08,2.36c-.01.3-.02.59-.02.89v78.22c-.35-.23-.69-.45-1.04-.69-.49-.33-.98-.66-1.46-1-.59-.41-1.17-.84-1.74-1.27-.47-.35-.94-.7-1.41-1.05-.58-.44-1.14-.9-1.71-1.35-.45-.36-.91-.72-1.35-1.09-.57-.47-1.13-.96-1.69-1.45-.43-.37-.86-.74-1.28-1.12-.57-.51-1.12-1.04-1.67-1.56-.4-.38-.8-.74-1.19-1.13-.58-.56-1.14-1.14-1.7-1.72-.35-.36-.71-.71-1.05-1.08-.62-.66-1.23-1.34-1.83-2.02-.27-.3-.55-.59-.81-.9-.86-.99-1.71-2-2.53-3.03-9.54-11.92-15.98-25.53-19.08-40.11-.28-1.33-.54-2.66-.76-4-.45-2.68-.79-5.39-1.02-8.13-.23-2.73-.34-5.49-.34-8.27,0-.02,0-.05,0-.07,0-.04,0-.09,0-.13.04-22.22,7.39-43.1,21.26-60.4m-18.85,238.13c-1.6-2.98-2.41-6.19-2.41-9.57v-57.58c.16.14.33.28.49.42.57.5,1.15.99,1.73,1.48.3.25.6.51.91.76.67.55,1.34,1.1,2.02,1.64.21.17.42.35.64.51.89.7,1.78,1.39,2.68,2.07.23.18.47.35.71.52.68.5,1.35,1,2.04,1.49.33.24.67.48,1.01.72.6.42,1.2.84,1.81,1.26.36.24.71.49,1.07.73.62.42,1.24.83,1.87,1.23.33.22.67.44,1,.65.8.51,1.61,1.02,2.43,1.52.15.09.3.19.46.28.96.58,1.92,1.15,2.89,1.71.33.19.66.37.99.56.66.37,1.32.74,1.98,1.11.39.21.78.42,1.16.63.63.34,1.26.67,1.89.99.39.2.78.4,1.17.6.68.35,1.37.68,2.06,1.02.33.16.67.33,1,.49,1.01.48,2.02.95,3.04,1.41.2.09.4.17.6.26.84.37,1.68.74,2.52,1.09.38.16.76.31,1.13.47.68.28,1.36.56,2.04.83.11.04.22.09.32.13v31c0,3.5-.86,6.81-2.56,9.86t0,0c-3.82,6.85-11.2,11.1-19.27,11.1s-15.65-4.37-19.43-11.39m94.73-80.52c-1.07,0-2.14-.02-3.21-.06-.09,0-.17,0-.26-.01v-93.77l.08-2.3c0-.15,0-.3,0-.45,0-.15.01-.29.01-.44,0-.06,0-.12,0-.18,0-.46.02-.92.04-1.38.01-.41.02-.83.04-1.23.02-.44.07-.88.1-1.32.03-.4.06-.8.1-1.2.05-.44.11-.88.17-1.32.05-.39.09-.78.16-1.17.07-.44.16-.87.24-1.31.07-.38.13-.76.21-1.14.09-.44.2-.87.3-1.3.09-.37.17-.74.26-1.1.11-.44.25-.87.37-1.3.1-.35.2-.71.31-1.06.14-.43.29-.86.44-1.29.12-.34.23-.68.35-1.02.16-.43.34-.85.51-1.27.13-.33.26-.66.4-.98.18-.42.38-.84.57-1.25.15-.32.29-.64.44-.95.2-.41.42-.82.64-1.23.16-.31.31-.62.48-.92.22-.41.47-.81.7-1.21.17-.29.33-.59.51-.87.25-.4.51-.79.77-1.19.18-.28.35-.56.54-.83.27-.39.55-.77.83-1.15.19-.27.38-.54.57-.8.29-.38.59-.75.88-1.12.2-.26.4-.52.61-.77.3-.36.62-.72.94-1.07.21-.24.42-.49.64-.73.32-.35.66-.69.99-1.03.23-.23.45-.47.68-.7.34-.34.69-.66,1.04-.99.23-.22.46-.45.7-.66.35-.32.72-.63,1.09-.94.24-.21.48-.42.73-.63.37-.3.75-.59,1.13-.88.26-.2.51-.41.77-.6.38-.28.78-.55,1.17-.83.27-.19.53-.38.8-.56.4-.27.81-.52,1.22-.77.27-.17.54-.35.82-.52.41-.25.84-.48,1.26-.72.28-.16.56-.33.85-.48.43-.23.86-.44,1.3-.66.29-.15.57-.3.86-.44.43-.21.88-.4,1.32-.59.3-.13.6-.28.91-.41.44-.18.88-.35,1.32-.52.32-.12.64-.26.96-.38.45-.16.92-.31,1.38-.46.32-.11.63-.22.95-.32.47-.15.95-.27,1.42-.4.32-.09.64-.19.96-.27.47-.12.94-.22,1.41-.32.34-.08.68-.16,1.02-.23.48-.1.97-.17,1.46-.26.34-.06.67-.13,1.01-.18.51-.08,1.02-.13,1.53-.19.33-.04.65-.09.98-.12.55-.05,1.11-.09,1.67-.13.29-.02.58-.05.88-.07.85-.04,1.71-.07,2.58-.07,27.67,0,50.21,22.34,50.25,49.8h0s0,.04,0,.06c0,.01,0,.03,0,.04h0v.11c-.01,53.49-43.58,97-97.14,97"/>
    </g>
  </g>
</svg>